<svg height="512" viewBox="0 0 128 128" width="512" xmlns="http://www.w3.org/2000/svg"><g id="icon"><path d="m86.515 54.013h-5.115c-2.09 9.075-8.022 40.689 2.195 71.664h10.691c-11.158-31.661-8.599-65.854-7.771-71.664z" fill="#e1b378"/><path d="m85.76 125.68h-2.16c-10.22-30.98-4.29-62.59-2.2-71.67h2.17c-2.09 9.08-8.03 40.69 2.19 71.67z" fill="#d0aa79"/><path d="m123.9 37.545c-19.9-12.714-41.449 16.491-41.449 16.491l1.2 1.455a66.42 66.42 0 0 0 12.285-2.386l-1.2-1.162 2.25.848c1.423-.429 2.805-.9 4.123-1.4l-1.768-1.716 3.128 1.182q1.806-.721 3.485-1.507l-2-1.936 3.391 1.287h.01c1.12-.544 2.166-1.1 3.171-1.642l-1.957-1.905 3.192 1.2c1.119-.638 2.176-1.276 3.139-1.9l-2.223-2.154 3.495 1.319c.921-.617 1.769-1.214 2.533-1.769l-2.836-2.752 4.311 1.633a44.157 44.157 0 0 0 3.72-3.186z" fill="#62a84a"/><path d="m122.644 71.883c-4.254-23.231-40.312-19.1-40.312-19.1l-.244 1.872a66.345 66.345 0 0 0 10.112 7.363l.03-1.672.913 2.224c1.284.749 2.569 1.44 3.835 2.063l.052-2.464 1.266 3.1q1.758.829 3.477 1.524l.055-2.782 1.368 3.358.007.008c1.161.449 2.28.837 3.363 1.2l.061-2.73 1.297 3.153c1.23.384 2.418.723 3.533 1l.067-3.093 1.416 3.457c1.079.253 2.093.468 3.02.649l.082-3.951 1.742 4.268a44.422 44.422 0 0 0 4.86.553z" fill="#65b54e"/><path d="m44.824 71.883c4.254-23.231 40.312-19.1 40.312-19.1l.244 1.872a66.345 66.345 0 0 1 -10.116 7.367l-.03-1.672-.913 2.224c-1.283.749-2.569 1.44-3.835 2.063l-.051-2.464-1.267 3.1q-1.758.829-3.477 1.524l-.055-2.782-1.368 3.358-.007.008c-1.161.449-2.28.837-3.363 1.2l-.061-2.73-1.293 3.149c-1.23.384-2.418.723-3.533 1l-.067-3.093-1.416 3.457c-1.079.253-2.093.468-3.02.649l-.082-3.951-1.742 4.268a44.422 44.422 0 0 1 -4.86.553z" fill="#62a84a"/><path d="m103.094 15.31c-23.401 3.184-20.931 39.39-20.931 39.39l1.858.33a66.28 66.28 0 0 0 7.823-9.768l-1.669-.107 2.264-.809c.807-1.248 1.556-2.5 2.236-3.737l-2.459-.164 3.151-1.123q.909-1.719 1.682-3.4l-2.777-.182 3.418-1.213.008-.007c.5-1.139.941-2.239 1.355-3.3l-2.725-.186 3.212-1.147c.441-1.211.834-2.382 1.162-3.484l-3.087-.208 3.518-1.256c.3-1.066.563-2.07.787-2.987l-3.943-.263 4.343-1.545a44.018 44.018 0 0 0 .774-4.834z" fill="#65b54e"/><path d="m43.573 37.545c19.9-12.714 41.449 16.491 41.449 16.491l-1.2 1.455a66.42 66.42 0 0 1 -12.285-2.386l1.2-1.162-2.25.848c-1.423-.429-2.8-.9-4.123-1.4l1.768-1.716-3.132 1.18q-1.806-.721-3.485-1.507l2-1.936-3.388 1.288h-.01c-1.12-.544-2.166-1.1-3.171-1.642l1.954-1.906-3.191 1.2c-1.12-.638-2.177-1.276-3.14-1.9l2.222-2.152-3.491 1.314c-.921-.617-1.769-1.214-2.533-1.769l2.833-2.752-4.311 1.633a44.157 44.157 0 0 1 -3.716-3.181z" fill="#65b54e"/><path d="m64.374 15.31c23.401 3.184 20.931 39.39 20.931 39.39l-1.858.33a66.28 66.28 0 0 1 -7.823-9.768l1.669-.107-2.264-.809c-.807-1.248-1.556-2.5-2.236-3.737l2.459-.164-3.152-1.12q-.909-1.719-1.682-3.4l2.777-.182-3.418-1.213-.008-.007c-.5-1.139-.941-2.239-1.354-3.3l2.724-.186-3.212-1.147c-.441-1.211-.834-2.382-1.161-3.484l3.086-.208-3.518-1.256c-.3-1.066-.563-2.07-.787-2.987l3.943-.263-4.343-1.545a44.018 44.018 0 0 1 -.773-4.837z" fill="#62a84a"/><path d="m124.581 128c-6.668-1.862-12.917-5.11-19.251-7.957-7.608-3.419-15.881-6.322-24.193-5.307-6.78.829-12.919 4.184-18.862 7.474l-9.985 5.528-.474.262z" fill="#e8c79c"/><path d="m124.58 128h-10.36c-4.63-1.79-9.12-4.03-13.65-6.07-7.61-3.42-15.88-6.32-24.2-5.3a30.873 30.873 0 0 0 -6.03 1.39 36.681 36.681 0 0 1 10.8-3.28c8.31-1.02 16.58 1.88 24.19 5.3 6.33 2.85 12.58 6.1 19.25 7.96z" fill="#d0aa79"/><circle cx="26.159" cy="22.74" fill="#f7b521" r="14.757"/><g opacity=".5"><circle cx="24.84" cy="20.941" fill="#ffc943" r="11.333"/></g><g fill="#f7b521"><path d="m29.788 6.667a1.032 1.032 0 0 1 -.219-.023 1.046 1.046 0 0 1 -.806-1.244l.969-4.57a1.046 1.046 0 1 1 2.047.434l-.969 4.574a1.046 1.046 0 0 1 -1.022.829z"/><path d="m21.562 45.479a1.089 1.089 0 0 1 -.218-.022 1.047 1.047 0 0 1 -.806-1.241l.969-4.574a1.046 1.046 0 1 1 2.047.435l-.969 4.573a1.046 1.046 0 0 1 -1.023.829z"/><path d="m47.853 28.384a1.1 1.1 0 0 1 -.219-.023l-4.573-.97a1.046 1.046 0 0 1 .434-2.047l4.574.97a1.046 1.046 0 0 1 -.216 2.07z"/><path d="m9.04 20.158a1.023 1.023 0 0 1 -.218-.023l-4.574-.969a1.046 1.046 0 0 1 .435-2.047l4.573.969a1.046 1.046 0 0 1 -.216 2.07z"/><path d="m40.831 14.246a1.047 1.047 0 0 1 -.572-1.924l3.919-2.548a1.046 1.046 0 1 1 1.141 1.754l-3.919 2.549a1.045 1.045 0 0 1 -.569.169z"/><path d="m7.57 35.875a1.047 1.047 0 0 1 -.57-1.924l3.917-2.551a1.046 1.046 0 1 1 1.141 1.754l-3.919 2.552a1.045 1.045 0 0 1 -.569.169z"/><path d="m38.248 42.376a1.046 1.046 0 0 1 -.878-.475l-2.549-3.919a1.047 1.047 0 0 1 1.755-1.142l2.549 3.919a1.046 1.046 0 0 1 -.877 1.617z"/><path d="m16.619 9.115a1.046 1.046 0 0 1 -.878-.475l-2.548-3.919a1.047 1.047 0 1 1 1.754-1.142l2.553 3.921a1.046 1.046 0 0 1 -.877 1.617z"/></g></g></svg>