<svg height="512" viewBox="0 0 128 128" width="512" xmlns="http://www.w3.org/2000/svg"><g id="icon"><path d="m58.481 13.483h11.328v105.951h-11.328z" fill="#d0aa79"/><path d="m119.266 37.956-7.592-7.891a4.194 4.194 0 0 0 -3.023-1.286h-54.214a4.194 4.194 0 0 0 -4.194 4.194v15.782a4.194 4.194 0 0 0 4.194 4.194h54.214a4.194 4.194 0 0 0 3.023-1.286l7.592-7.891a4.2 4.2 0 0 0 0-5.816z" fill="#d0aa79"/><path d="m119.261 43.777-7.592 7.883a4.166 4.166 0 0 1 -3.023 1.291h-54.207a4.2 4.2 0 0 1 -4.2-4.2v-1.8a4.193 4.193 0 0 0 4.2 4.186h54.207a4.2 4.2 0 0 0 3.023-1.279l7.592-7.895a4.062 4.062 0 0 0 1.07-2 4.152 4.152 0 0 1 -1.07 3.814z" fill="#bf9a71"/><path d="m11.091 70.779 7.592-7.891a4.2 4.2 0 0 1 3.023-1.288h54.214a4.2 4.2 0 0 1 4.194 4.2v15.778a4.194 4.194 0 0 1 -4.194 4.194h-54.214a4.194 4.194 0 0 1 -3.023-1.286l-7.592-7.886a4.2 4.2 0 0 1 0-5.821z" fill="#d0aa79"/><path d="m11.1 76.6 7.592 7.883a4.166 4.166 0 0 0 3.023 1.291h54.203a4.2 4.2 0 0 0 4.2-4.2v-1.8a4.193 4.193 0 0 1 -4.2 4.186h-54.207a4.2 4.2 0 0 1 -3.023-1.279l-7.588-7.895a4.054 4.054 0 0 1 -1.07-2 4.152 4.152 0 0 0 1.07 3.814z" fill="#bf9a71"/><circle cx="64.145" cy="10.906" fill="#d0aa79" r="10.906" transform="matrix(.707 -.707 .707 .707 11.076 48.552)"/><path d="m75.057 10.9a10.913 10.913 0 0 1 -20.564 5.09 10.712 10.712 0 0 0 5.1 1.272 10.91 10.91 0 0 0 10.907-10.906 10.749 10.749 0 0 0 -1.271-5.1 10.885 10.885 0 0 1 5.828 9.644z" fill="#bf9a71"/><path d="m85.192 114h-42.092a4.392 4.392 0 0 0 -4.392 4.393v8.374a1.226 1.226 0 0 0 1.225 1.233h48.425a1.226 1.226 0 0 0 1.226-1.227v-8.373a4.392 4.392 0 0 0 -4.392-4.4z" fill="#d0aa79"/><path d="m85.2 114h-.163a4.319 4.319 0 0 1 .709 2.383v9.6h-47.035v.785a1.226 1.226 0 0 0 1.226 1.232h48.417a1.226 1.226 0 0 0 1.226-1.227v-8.373a4.389 4.389 0 0 0 -4.38-4.4z" fill="#bf9a71"/></g></svg>